<svg width="48" height="48" viewBox="0 0 48 48" fill="none" xmlns="http://www.w3.org/2000/svg">
<path d="M0 24C0 10.7452 10.7452 0 24 0C37.2548 0 48 10.7452 48 24C48 37.2548 37.2548 48 24 48C10.7452 48 0 37.2548 0 24Z" fill="#EFF7F7"/>
<g clip-path="url(#clip0_25778_9871)">
<path d="M27.6758 15.0293C27.7819 15.052 27.8797 15.1065 27.9551 15.1846L32.8184 20.2344L32.8301 20.2461C33.0335 20.4583 33.0333 20.7915 32.8301 21.0029L27.9551 26.0654C27.8011 26.2253 27.5634 26.2757 27.3594 26.1924C27.2585 26.152 27.1712 26.0822 27.1104 25.9922C27.0496 25.9022 27.0175 25.796 27.0176 25.6875V23.2324H26.1084C23.7432 23.2326 21.617 24.5465 20.5596 26.6621C20.4643 26.8519 20.2671 26.9727 20.0615 26.9727C20.0217 26.9726 19.9821 26.968 19.9424 26.958C19.6956 26.9004 19.5176 26.6897 19.5176 26.4375V25.3125C19.5176 21.2903 22.7903 18.0176 26.8125 18.0176H27.0176V15.5625C27.0177 15.4538 27.0505 15.3479 27.1113 15.2578C27.1722 15.1677 27.2586 15.0973 27.3594 15.0566C27.4598 15.0164 27.57 15.0068 27.6758 15.0293Z" fill="#556BB9" stroke="white" stroke-width="0.0351558"/>
<path d="M17.25 18.0176H19.5C19.905 18.0176 20.2324 18.345 20.2324 18.75C20.2324 19.155 19.905 19.4824 19.5 19.4824H17.25C16.8263 19.4824 16.4824 19.8263 16.4824 20.25V30.75C16.4826 31.1736 16.8263 31.5176 17.25 31.5176H30.75C31.1734 31.5175 31.5174 31.1736 31.5176 30.75V24.75C31.5176 24.345 31.845 24.0176 32.25 24.0176C32.655 24.0177 32.9824 24.3451 32.9824 24.75V30.75C32.9823 31.9807 31.9806 32.9823 30.75 32.9824H17.25C16.0193 32.9824 15.0177 31.9808 15.0176 30.75V20.25C15.0176 19.0192 16.0192 18.0176 17.25 18.0176Z" fill="#556BB9" stroke="white" stroke-width="0.0351558"/>
</g>
<defs>
<clipPath id="clip0_25778_9871">
<rect width="18" height="18" fill="white" transform="translate(15 15)"/>
</clipPath>
</defs>
</svg>
